<svg xmlns="http://www.w3.org/2000/svg" viewBox="0 0 860 600">
  <rect width="860" height="600" fill="#ffffff"/>

  <!-- header -->
  <rect x="0" y="0" width="860" height="40" fill="#4a4a4a"/>
  <text x="16" y="25" font-family="system-ui, sans-serif" font-size="15" fill="#c7c7c7">Home \ Dashboard View</text>

  <!-- sidebar -->
  <rect x="0" y="40" width="64" height="560" fill="#4a4a4a"/>
  <path d="M32 62 L44 72 V90 H20 V72 Z" fill="none" stroke="#c7c7c7" stroke-width="2" stroke-linejoin="round"/>
  <circle cx="32" cy="79" r="2.5" fill="#c7c7c7"/>
  <g stroke="#8a8a8a" stroke-width="1.6" fill="none">
    <rect x="15" y="110" width="34" height="34" rx="3"/>
    <path d="M15 110 L49 144 M49 110 L15 144"/>
    <rect x="15" y="162" width="34" height="34" rx="3"/>
    <path d="M15 162 L49 196 M49 162 L15 196"/>
    <rect x="15" y="214" width="34" height="34" rx="3"/>
    <path d="M15 214 L49 248 M49 214 L15 248"/>
    <rect x="15" y="266" width="34" height="34" rx="3"/>
    <path d="M15 266 L49 300 M49 266 L15 300"/>
    <rect x="15" y="318" width="34" height="34" rx="3"/>
    <path d="M15 318 L49 352 M49 318 L15 352"/>
    <rect x="15" y="370" width="34" height="34" rx="3"/>
    <path d="M15 370 L49 404 M49 370 L15 404"/>
  </g>

  <!-- main panel -->
  <rect x="88" y="64" width="748" height="500" fill="#ffffff" stroke="#e6e6e6"/>

  <text x="112" y="128" font-family="system-ui, sans-serif" font-size="32" font-weight="700" fill="#2a2a2a">Dashboard</text>
  <rect x="360" y="96" width="260" height="34" rx="4" fill="#ffffff" stroke="#cfcfcf"/>
  <text x="374" y="118" font-family="system-ui, sans-serif" font-size="13" fill="#9a9a9a">Search my courses</text>
  <circle cx="598" cy="113" r="6" fill="none" stroke="#9a9a9a" stroke-width="1.6"/>
  <line x1="602" y1="117" x2="608" y2="123" stroke="#9a9a9a" stroke-width="1.6"/>

  <line x1="112" y1="150" x2="800" y2="150" stroke="#e2e2e2"/>
  <text x="118" y="168" font-family="system-ui, sans-serif" font-size="11" fill="#9a9a9a">B</text>

  <!-- course cards -->
  <g>
    <rect x="112" y="178" width="150" height="96" fill="#8a8a8a"/>
    <path d="M112 178 L262 274 M262 178 L112 274" stroke="#bcbcbc" stroke-width="1.2"/>
    <rect x="112" y="274" width="150" height="26" fill="#dcdcdc"/>

    <rect x="282" y="178" width="150" height="96" fill="#8a8a8a"/>
    <path d="M282 178 L432 274 M432 178 L282 274" stroke="#bcbcbc" stroke-width="1.2"/>
    <rect x="282" y="274" width="150" height="26" fill="#dcdcdc"/>

    <rect x="452" y="178" width="150" height="96" fill="#8a8a8a"/>
    <path d="M452 178 L602 274 M602 178 L452 274" stroke="#bcbcbc" stroke-width="1.2"/>
    <rect x="452" y="274" width="150" height="26" fill="#dcdcdc"/>

    <rect x="112" y="330" width="150" height="96" fill="#8a8a8a"/>
    <path d="M112 330 L262 426 M262 330 L112 426" stroke="#bcbcbc" stroke-width="1.2"/>
    <rect x="112" y="426" width="150" height="26" fill="#dcdcdc"/>

    <rect x="282" y="330" width="150" height="96" fill="#8a8a8a"/>
    <path d="M282 330 L432 426 M432 330 L282 426" stroke="#bcbcbc" stroke-width="1.2"/>
    <rect x="282" y="426" width="150" height="26" fill="#dcdcdc"/>
  </g>

  <!-- right column -->
  <rect x="706" y="88" width="110" height="26" rx="13" fill="#d8d8d8"/>
  <circle cx="760" cy="188" r="42" fill="none" stroke="#dcdcdc" stroke-width="16"/>
  <g stroke="#a3a3a3" stroke-width="1.6" fill="none">
    <rect x="706" y="250" width="28" height="28" rx="3"/>
    <path d="M706 250 L734 278 M734 250 L706 278"/>
    <rect x="748" y="250" width="28" height="28" rx="3"/>
    <path d="M748 250 L776 278 M776 250 L748 278"/>
    <rect x="790" y="250" width="28" height="28" rx="3"/>
    <path d="M790 250 L818 278 M818 250 L790 278"/>
  </g>
  <rect x="706" y="298" width="118" height="20" rx="3" fill="#dcdcdc"/>
  <rect x="706" y="328" width="118" height="20" rx="3" fill="#dcdcdc"/>
  <rect x="706" y="358" width="118" height="20" rx="3" fill="#dcdcdc"/>
  <rect x="706" y="388" width="118" height="20" rx="3" fill="#dcdcdc"/>
</svg>
