<svg xmlns="http://www.w3.org/2000/svg" viewBox="0 0 860 600">
  <rect width="860" height="600" fill="#ffffff"/>

  <!-- header -->
  <rect x="0" y="0" width="860" height="40" fill="#4a4a4a"/>
  <text x="16" y="25" font-family="system-ui, sans-serif" font-size="15" fill="#c7c7c7">Submission View</text>

  <!-- sidebar -->
  <rect x="0" y="40" width="64" height="560" fill="#4a4a4a"/>
  <path d="M32 62 L44 72 V90 H20 V72 Z" fill="none" stroke="#c7c7c7" stroke-width="2" stroke-linejoin="round"/>
  <circle cx="32" cy="79" r="2.5" fill="#c7c7c7"/>
  <g stroke="#8a8a8a" stroke-width="1.6" fill="none">
    <rect x="15" y="110" width="34" height="34" rx="3"/>
    <path d="M15 110 L49 144 M49 110 L15 144"/>
    <rect x="15" y="162" width="34" height="34" rx="3"/>
    <path d="M15 162 L49 196 M49 162 L15 196"/>
    <rect x="15" y="214" width="34" height="34" rx="3"/>
    <path d="M15 214 L49 248 M49 214 L15 248"/>
    <rect x="15" y="266" width="34" height="34" rx="3"/>
    <path d="M15 266 L49 300 M49 266 L15 300"/>
    <rect x="15" y="318" width="34" height="34" rx="3"/>
    <path d="M15 318 L49 352 M49 318 L15 352"/>
    <rect x="15" y="370" width="34" height="34" rx="3"/>
    <path d="M15 370 L49 404 M49 370 L15 404"/>
  </g>

  <!-- main panel -->
  <rect x="88" y="64" width="748" height="500" fill="#ffffff" stroke="#e6e6e6"/>
  <text x="112" y="102" font-family="system-ui, sans-serif" font-size="18" fill="#8a8a8a">&lt;</text>

  <rect x="112" y="118" width="150" height="17" rx="3" fill="#e2e2e2"/>
  <rect x="112" y="148" width="150" height="17" rx="3" fill="#e2e2e2"/>
  <rect x="112" y="178" width="150" height="17" rx="3" fill="#e2e2e2"/>
  <rect x="112" y="208" width="150" height="17" rx="3" fill="#e2e2e2"/>
  <rect x="112" y="238" width="150" height="17" rx="3" fill="#e2e2e2"/>

  <text x="304" y="108" font-family="system-ui, sans-serif" font-size="19" font-weight="700" fill="#3a3a3a">Submission Details</text>
  <rect x="304" y="130" width="330" height="390" rx="4" fill="#dcdcdc"/>
  <text x="320" y="150" font-family="system-ui, sans-serif" font-size="12" fill="#6b6b6b">View Submission</text>
  <rect x="334" y="162" width="270" height="330" rx="2" fill="#a3a3a3"/>

  <rect x="670" y="88" width="110" height="26" rx="13" fill="#d8d8d8"/>
  <text x="670" y="142" font-family="system-ui, sans-serif" font-size="13" fill="#6b6b6b">Professors comment</text>
  <rect x="670" y="152" width="140" height="90" rx="4" fill="#e2e2e2"/>
  <text x="670" y="266" font-family="system-ui, sans-serif" font-size="13" fill="#6b6b6b">Add comment</text>
  <rect x="670" y="276" width="140" height="90" rx="4" fill="#e2e2e2"/>
</svg>
