<svg xmlns="http://www.w3.org/2000/svg" viewBox="0 0 860 2450" width="860" height="2450" font-family="system-ui, sans-serif">
  <rect width="860" height="2450" fill="#ffffff"/>

  <!-- NAV -->
  <text x="30" y="36" font-family="Georgia, serif" font-style="italic" font-size="18" fill="#1a1a1a">Shreya Katiyar</text>
  <text x="790" y="36" text-anchor="end" font-size="11.5" fill="#333">About    Experience    Skills    Work    Contact</text>
  <circle cx="822" cy="30" r="11" fill="none" stroke="#1a1a1a"/>
  <text x="822" y="34" text-anchor="middle" font-size="10" fill="#1a1a1a">&#9789;</text>
  <line x1="0" y1="60" x2="860" y2="60" stroke="#ddd"/>

  <!-- HERO -->
  <text x="80" y="120" font-size="18" fill="#ccc">&#10022;</text>
  <text x="780" y="150" font-size="18" fill="#ccc">&#10022;</text>
  <text x="100" y="340" font-size="18" fill="#ccc">&#10022;</text>
  <text x="760" y="330" font-size="18" fill="#ccc">&#10022;</text>
  <text x="430" y="115" text-anchor="middle" font-style="italic" font-size="16" fill="#666">hey &#8212; glad you're here</text>
  <text x="430" y="175" text-anchor="middle" font-family="Georgia, serif" font-style="italic" font-weight="700" font-size="46" fill="#1a1a1a">Shreya Katiyar</text>
  <text x="430" y="213" text-anchor="middle" font-size="12" letter-spacing="1" fill="#555">PRODUCT-MINDED ENGINEER &#183; AI/ML &#183; DATA-DRIVEN DECISIONS</text>
  <text x="430" y="243" text-anchor="middle" font-style="italic" font-size="14" fill="#666">LLMs &#215; RAG Pipelines &#215; React &#215; Python</text>
  <rect x="231" y="278" width="130" height="38" rx="19" fill="#1a1a1a"/>
  <text x="296" y="302" text-anchor="middle" font-size="12" fill="#fff">View my work</text>
  <rect x="375" y="278" width="110" height="38" rx="19" fill="none" stroke="#1a1a1a"/>
  <text x="430" y="302" text-anchor="middle" font-size="12" fill="#1a1a1a">Resume</text>
  <rect x="499" y="278" width="130" height="38" rx="19" fill="none" stroke="#1a1a1a"/>
  <text x="564" y="302" text-anchor="middle" font-size="12" fill="#1a1a1a">Get in touch</text>
  <text x="430" y="356" text-anchor="middle" font-size="12" fill="#555">UC Irvine &#160; &#10022; &#160; New Grad &#160; &#10022; &#160; Open to Relocation</text>
  <text x="430" y="405" text-anchor="middle" font-size="20" fill="#999">&#8595;</text>

  <!-- ABOUT -->
  <line x1="0" y1="420" x2="860" y2="420" stroke="#ddd"/>
  <text x="60" y="470" font-style="italic" font-size="16" fill="#666">the short version &#8212;</text>
  <text x="60" y="502" font-family="Georgia, serif" font-weight="700" font-size="22" fill="#1a1a1a">turning curiosity into things</text>
  <text x="60" y="530" font-family="Georgia, serif" font-weight="700" font-size="22" fill="#1a1a1a">people can actually use.</text>
  <rect x="60" y="560" width="420" height="10" fill="#e2e2e2"/>
  <rect x="60" y="580" width="420" height="10" fill="#e2e2e2"/>
  <rect x="60" y="600" width="420" height="10" fill="#e2e2e2"/>
  <rect x="60" y="620" width="380" height="10" fill="#e2e2e2"/>
  <rect x="60" y="640" width="300" height="10" fill="#e2e2e2"/>

  <circle cx="680" cy="580" r="140" fill="none" stroke="#cccccc" stroke-width="2" stroke-dasharray="4 5"/>
  <rect x="560" y="460" width="240" height="240" rx="12" fill="#dcdcdc" stroke="#1a1a1a"/>
  <circle cx="800" cy="460" r="18" fill="#1a1a1a"/>
  <text x="800" y="465" text-anchor="middle" font-size="14" fill="#fff">&#10022;</text>
  <rect x="540" y="680" width="92" height="26" rx="13" fill="#fff" stroke="#1a1a1a"/>
  <text x="586" y="697" text-anchor="middle" font-style="italic" font-size="10" fill="#1a1a1a">that's me!</text>

  <rect x="60" y="730" width="340" height="90" rx="8" fill="none" stroke="#1a1a1a"/>
  <text x="76" y="752" font-style="italic" font-size="13" fill="#666">at a glance &#8212;</text>
  <rect x="76" y="766" width="300" height="8" fill="#e2e2e2"/>
  <rect x="76" y="782" width="280" height="8" fill="#e2e2e2"/>
  <rect x="76" y="798" width="260" height="8" fill="#e2e2e2"/>
  <rect x="420" y="730" width="380" height="90" rx="8" fill="none" stroke="#1a1a1a"/>
  <text x="436" y="752" font-style="italic" font-size="13" fill="#666">what I'm after &#8212;</text>
  <rect x="436" y="766" width="340" height="8" fill="#e2e2e2"/>
  <rect x="436" y="782" width="320" height="8" fill="#e2e2e2"/>
  <rect x="436" y="798" width="300" height="8" fill="#e2e2e2"/>

  <!-- EXPERIENCE -->
  <line x1="0" y1="850" x2="860" y2="850" stroke="#ddd"/>
  <text x="60" y="900" font-style="italic" font-size="16" fill="#666">how it all adds up</text>
  <text x="60" y="932" font-family="Georgia, serif" font-weight="700" font-size="26" fill="#1a1a1a">My journey so far</text>
  <rect x="60" y="948" width="500" height="9" fill="#e2e2e2"/>

  <text x="60" y="995" font-weight="700" font-size="18" fill="#1a1a1a">Professional Experience</text>
  <text x="270" y="995" font-style="italic" font-size="12" fill="#666">the 9-to-5 (ish)</text>
  <line x1="60" y1="1010" x2="800" y2="1010" stroke="#ddd"/>

  <text x="60" y="1030" font-size="10" fill="#888">Jan 2026 &#8212; Jun 2026</text>
  <text x="60" y="1045" font-size="9" fill="#999">PRENOSTIK &#183; FULL-TIME &#183; ON-SITE</text>
  <text x="60" y="1068" font-weight="700" font-size="15" fill="#1a1a1a">AI Lead (Senior Capstone)</text>
  <rect x="60" y="1082" width="720" height="8" fill="#e2e2e2"/>
  <rect x="60" y="1096" width="700" height="8" fill="#e2e2e2"/>
  <rect x="60" y="1110" width="650" height="8" fill="#e2e2e2"/>
  <line x1="60" y1="1128" x2="800" y2="1128" stroke="#eee"/>

  <text x="60" y="1148" font-size="10" fill="#888">Dec 2025 &#8212; Present</text>
  <text x="60" y="1163" font-size="9" fill="#999">INDIO FABRICS &amp; PUBLISHING LLC &#183; PART-TIME &#183; ON-SITE</text>
  <text x="60" y="1186" font-weight="700" font-size="15" fill="#1a1a1a">Lead UI/UX Designer</text>
  <rect x="60" y="1200" width="710" height="8" fill="#e2e2e2"/>
  <rect x="60" y="1214" width="680" height="8" fill="#e2e2e2"/>
  <line x1="60" y1="1232" x2="800" y2="1232" stroke="#eee"/>

  <text x="430" y="1266" text-anchor="middle" font-style="italic" font-size="12" fill="#999">+ 5 more roles &#183;&#183;&#183;</text>

  <!-- SKILLS -->
  <line x1="0" y1="1300" x2="860" y2="1300" stroke="#ddd"/>
  <text x="60" y="1340" font-style="italic" font-size="16" fill="#666">the toolkit</text>
  <text x="60" y="1372" font-family="Georgia, serif" font-weight="700" font-size="26" fill="#1a1a1a">My toolbox</text>

  <g>
    <rect x="60" y="1410" width="230" height="120" rx="8" fill="none" stroke="#1a1a1a"/>
    <text x="76" y="1432" font-weight="700" font-size="12" fill="#1a1a1a">Languages</text>
    <rect x="76" y="1444" width="46" height="18" rx="9" fill="#e2e2e2"/>
    <rect x="128" y="1444" width="42" height="18" rx="9" fill="#e2e2e2"/>
    <rect x="176" y="1444" width="50" height="18" rx="9" fill="#e2e2e2"/>
    <rect x="76" y="1470" width="54" height="18" rx="9" fill="#e2e2e2"/>
    <rect x="136" y="1470" width="38" height="18" rx="9" fill="#e2e2e2"/>

    <rect x="315" y="1410" width="230" height="120" rx="8" fill="none" stroke="#1a1a1a"/>
    <text x="331" y="1432" font-weight="700" font-size="12" fill="#1a1a1a">AI/ML &amp; Data</text>
    <rect x="331" y="1444" width="40" height="18" rx="9" fill="#e2e2e2"/>
    <rect x="377" y="1444" width="72" height="18" rx="9" fill="#e2e2e2"/>
    <rect x="331" y="1470" width="60" height="18" rx="9" fill="#e2e2e2"/>
    <rect x="397" y="1470" width="50" height="18" rx="9" fill="#e2e2e2"/>
    <rect x="331" y="1496" width="46" height="18" rx="9" fill="#e2e2e2"/>

    <rect x="570" y="1410" width="230" height="120" rx="8" fill="none" stroke="#1a1a1a"/>
    <text x="586" y="1432" font-weight="700" font-size="12" fill="#1a1a1a">Web &amp; Mobile</text>
    <rect x="586" y="1444" width="46" height="18" rx="9" fill="#e2e2e2"/>
    <rect x="638" y="1444" width="56" height="18" rx="9" fill="#e2e2e2"/>
    <rect x="586" y="1470" width="70" height="18" rx="9" fill="#e2e2e2"/>
    <rect x="662" y="1470" width="42" height="18" rx="9" fill="#e2e2e2"/>

    <rect x="60" y="1550" width="230" height="120" rx="8" fill="none" stroke="#1a1a1a"/>
    <text x="76" y="1572" font-weight="700" font-size="12" fill="#1a1a1a">Tools &amp; Cloud</text>
    <rect x="76" y="1584" width="40" height="18" rx="9" fill="#e2e2e2"/>
    <rect x="122" y="1584" width="66" height="18" rx="9" fill="#e2e2e2"/>
    <rect x="76" y="1610" width="50" height="18" rx="9" fill="#e2e2e2"/>
    <rect x="132" y="1610" width="34" height="18" rx="9" fill="#e2e2e2"/>

    <rect x="315" y="1550" width="230" height="120" rx="8" fill="none" stroke="#1a1a1a"/>
    <text x="331" y="1572" font-weight="700" font-size="12" fill="#1a1a1a">Design</text>
    <rect x="331" y="1584" width="46" height="18" rx="9" fill="#e2e2e2"/>
    <rect x="383" y="1584" width="66" height="18" rx="9" fill="#e2e2e2"/>
    <rect x="331" y="1610" width="86" height="18" rx="9" fill="#e2e2e2"/>

    <rect x="570" y="1550" width="230" height="120" rx="8" fill="none" stroke="#1a1a1a"/>
    <text x="586" y="1572" font-weight="700" font-size="12" fill="#1a1a1a">Certifications</text>
    <rect x="586" y="1584" width="90" height="18" rx="9" fill="#e2e2e2"/>
    <rect x="586" y="1610" width="110" height="18" rx="9" fill="#e2e2e2"/>
  </g>

  <!-- WORK -->
  <line x1="0" y1="1710" x2="860" y2="1710" stroke="#ddd"/>
  <text x="60" y="1750" font-style="italic" font-size="16" fill="#666">things I've shipped</text>
  <text x="60" y="1782" font-family="Georgia, serif" font-weight="700" font-size="26" fill="#1a1a1a">Projects I love</text>

  <rect x="60" y="1810" width="740" height="100" rx="8" fill="none" stroke="#1a1a1a"/>
  <rect x="76" y="1826" width="130" height="68" fill="#dcdcdc"/>
  <text x="222" y="1840" font-size="7.5" fill="#888">CAPSTONE &#183; PYTHON &#183; FASTAPI &#183; REACT &#183; GPT-4o</text>
  <text x="222" y="1860" font-weight="700" font-size="14" fill="#1a1a1a">My Learning Coach (MLC)</text>
  <rect x="222" y="1870" width="560" height="7" fill="#e2e2e2"/>
  <rect x="222" y="1882" width="520" height="7" fill="#e2e2e2"/>
  <text x="222" y="1900" font-style="italic" font-size="9.5" fill="#666">View the expo poster &#8594;</text>

  <g font-size="8" fill="#1a1a1a">
    <rect x="60" y="1936" width="230" height="112" rx="6" fill="none" stroke="#1a1a1a"/>
    <text x="74" y="1956" fill="#888">KOTLIN &#183; COMPOSE &#183; CLAUDE API</text>
    <text x="74" y="1974" font-weight="700" font-size="13" fill="#1a1a1a">RunwayIQ</text>
    <rect x="74" y="1984" width="200" height="6" fill="#e2e2e2"/>
    <rect x="74" y="1996" width="180" height="6" fill="#e2e2e2"/>
    <text x="74" y="2028" font-style="italic" font-size="8.5" fill="#666">View on GitHub &#8594;</text>

    <rect x="315" y="1936" width="230" height="112" rx="6" fill="none" stroke="#1a1a1a"/>
    <text x="329" y="1956" fill="#888">FLASK &#183; FASTAPI &#183; OPENAI API</text>
    <text x="329" y="1974" font-weight="700" font-size="13" fill="#1a1a1a">FeedbackLLM</text>
    <rect x="329" y="1984" width="200" height="6" fill="#e2e2e2"/>
    <rect x="329" y="1996" width="180" height="6" fill="#e2e2e2"/>
    <text x="329" y="2028" font-style="italic" font-size="8.5" fill="#666">View on GitHub &#8594;</text>

    <rect x="570" y="1936" width="230" height="112" rx="6" fill="none" stroke="#1a1a1a"/>
    <text x="584" y="1956" fill="#888">OPENCV &#183; PYTHON &#183; ML</text>
    <text x="584" y="1974" font-weight="700" font-size="13" fill="#1a1a1a">Real Class</text>
    <rect x="584" y="1984" width="200" height="6" fill="#e2e2e2"/>
    <rect x="584" y="1996" width="180" height="6" fill="#e2e2e2"/>
    <text x="584" y="2028" font-style="italic" font-size="8.5" fill="#666">View on GitHub &#8594;</text>

    <rect x="60" y="2066" width="230" height="112" rx="6" fill="none" stroke="#1a1a1a"/>
    <text x="74" y="2086" fill="#888">NEXT.JS &#183; REACT &#183; SUPABASE</text>
    <text x="74" y="2104" font-weight="700" font-size="13" fill="#1a1a1a">Pages</text>
    <rect x="74" y="2114" width="200" height="6" fill="#e2e2e2"/>
    <rect x="74" y="2126" width="180" height="6" fill="#e2e2e2"/>
    <text x="74" y="2158" font-style="italic" font-size="8.5" fill="#666">View on GitHub &#8594;</text>

    <rect x="315" y="2066" width="230" height="112" rx="6" fill="none" stroke="#1a1a1a"/>
    <text x="329" y="2086" fill="#888">ANDROID STUDIO &#183; JAVA &#183; KOTLIN</text>
    <text x="329" y="2104" font-weight="700" font-size="13" fill="#1a1a1a">NurtureSync</text>
    <rect x="329" y="2114" width="200" height="6" fill="#e2e2e2"/>
    <rect x="329" y="2126" width="180" height="6" fill="#e2e2e2"/>
    <text x="329" y="2158" font-style="italic" font-size="8.5" fill="#666">View on GitHub &#8594;</text>

    <rect x="570" y="2066" width="230" height="112" rx="6" fill="none" stroke="#1a1a1a"/>
    <text x="584" y="2086" fill="#888">DESIGN CASE STUDIES</text>
    <text x="584" y="2104" font-weight="700" font-size="13" fill="#1a1a1a">UI/UX Design Portfolio</text>
    <rect x="584" y="2114" width="200" height="6" fill="#e2e2e2"/>
    <rect x="584" y="2126" width="180" height="6" fill="#e2e2e2"/>
    <text x="584" y="2158" font-style="italic" font-size="8.5" fill="#666">View designs &#8594;</text>
  </g>

  <text x="430" y="2216" text-anchor="middle" font-style="italic" font-size="12" fill="#666">there's more where that came from</text>
  <rect x="350" y="2230" width="160" height="34" rx="17" fill="none" stroke="#1a1a1a"/>
  <text x="430" y="2252" text-anchor="middle" font-size="11" fill="#1a1a1a">Visit my GitHub &#8594;</text>

  <!-- CONTACT -->
  <rect x="0" y="2310" width="860" height="140" fill="#1a1a1a"/>
  <text x="430" y="2350" text-anchor="middle" font-style="italic" font-size="14" fill="#8fd0ea">don't be a stranger</text>
  <text x="430" y="2380" text-anchor="middle" font-family="Georgia, serif" font-weight="700" font-size="22" fill="#ffffff">let's build something.</text>
  <text x="430" y="2408" text-anchor="middle" font-size="11" fill="#cdeefb">email &#160;&#183;&#160; LinkedIn &#160;&#183;&#160; GitHub &#160;&#183;&#160; Resume &#8595;</text>
  <text x="430" y="2434" text-anchor="middle" font-size="9" fill="#8899a3">made with so much love, by Shreya Katiyar</text>
</svg>
